<svg xmlns="http://www.w3.org/2000/svg" width="64" height="64" viewBox="0 0 640 640" shape-rendering="geometricPrecision" text-rendering="geometricPrecision" image-rendering="optimizeQuality" fill-rule="evenodd" clip-rule="evenodd"><path d="M0 320h.083c0 88.418 35.8 168.415 93.65 226.267 57.852 57.851 137.848 93.65 226.255 93.65V640H320v-.082c88.419 0 168.415-35.8 226.267-93.651 57.851-57.851 93.651-137.848 93.651-226.255h.083V320h-.083c0-88.418-35.8-168.415-93.65-226.267C488.415 35.883 408.418.083 320.011.083V0H320v.082c-88.418 0-168.415 35.8-226.267 93.651C35.883 151.584.083 231.581.083 319.988H0V320zm221.247 53.434c-10.229 9.945-26.563 9.708-36.508-.508-9.945-10.217-9.72-26.563.508-36.508l117.285-113.742 18 18.508-18.012-18.591c10.264-9.945 26.646-9.697 36.603.567.295.295.567.602.838.91l114.875 112.347c10.229 9.945 10.453 26.292.508 36.509-9.933 10.216-26.28 10.452-36.508.507L320.46 277.22l-99.214 96.213z" fill-rule="nonzero"/></svg>